<svg xmlns="http://www.w3.org/2000/svg" viewBox="0 0 1920 1080" width="1920" height="1080">
  <defs>
    <pattern id="g" width="120" height="120" patternUnits="userSpaceOnUse">
      <rect width="120" height="120" fill="none" stroke="rgba(255,255,255,0.22)" stroke-width="0.75"/>
    </pattern>
  </defs>

  <rect width="1920" height="1080" fill="#080808"/>
  <rect width="1920" height="1080" fill="url(#g)"/>

  <!-- FOHP logo centred, inlined -->
  <svg x="0" y="0" width="1920" height="1080" viewBox="0 0 1920 1080" overflow="visible" opacity="0.72">
    <defs><style>.lb1{fill:#fff;}.lb2,.lb3{fill:#1b75bb;}.lb3,.lb4,.lb5{stroke:#fff;stroke-miterlimit:10;}.lb3,.lb4{stroke-width:2px;}.lb4,.lb5{fill:none;}</style></defs><rect class="lb1" x="1192.13" y="268.52" width="80.92" height="170.17" rx="5.31"/><rect class="lb1" x="1192.13" y="548.18" width="80.92" height="120.46" rx="5.31"/><rect class="lb1" x="1293.56" y="548.18" width="80.92" height="120.46" rx="5.31"/><path class="lb1" d="M409.32,268.52a104.84,104.84,0,0,0-32.09,4.74,74.48,74.48,0,0,0-25.67,13.95,63.11,63.11,0,0,0-17,23.16q-6.15,14-6.14,32.93v320a5.31,5.31,0,0,0,5.31,5.31H404a5.31,5.31,0,0,0,5.31-5.31V535a5.3,5.3,0,0,1,5.3-5.31H584.87a5.31,5.31,0,0,0,5.31-5.31V463a5.31,5.31,0,0,0-5.31-5.31H414.62a5.3,5.3,0,0,1-5.3-5.31v-80.1q0-15.07,5.86-23.16t20.92-8.09H598.24a5.31,5.31,0,0,0,5.12-3.94q.76-2.78,1.54-5.45c3.81-13.14,9.13-24.31,15.79-33.2l.07-.09.07-.1a125.83,125.83,0,0,1,31.32-28.56c.64-.42,1.3-.81,2-1.21Z"/><path class="lb1" d="M946.36,561.59q2.67-14.46,3.21-37.47t.54-54.58v-3.21q0-31.57-.54-54.59t-3.21-37.46q-4.29-20.86-9.09-37.46t-12.85-27.29a106.66,106.66,0,0,0-26.76-24.35,107.76,107.76,0,0,0-34.25-14.72q-12.84-2.67-33.71-3.21t-49.77-.54q-28.89,0-49.77.54t-33.71,3.21a107.66,107.66,0,0,0-34.25,14.72,106.49,106.49,0,0,0-26.76,24.35q-8,10.71-12.84,27.29t-9.1,37.46q-2.68,14.45-3.21,37.46t-.54,54.59v3.21q0,31.59.54,54.58t3.21,37.47q4.28,20.86,9.1,37.46t12.84,27.29a106.49,106.49,0,0,0,26.76,24.35,107.89,107.89,0,0,0,34.25,14.72q12.84,2.67,33.71,3.21t49.77.53q28.91,0,49.77-.53t33.71-3.21a108,108,0,0,0,34.25-14.72,106.66,106.66,0,0,0,26.76-24.35q8-10.7,12.85-27.29T946.36,561.59Zm-73.85-32.11q0,28.37-8,42.54t-27.3,19a137.67,137.67,0,0,1-25.69,3.48q-15,.79-31.57.8t-31.57-.8A137.43,137.43,0,0,1,722.67,591q-19.26-4.82-27.29-19t-8-42.54V406.39q0-28.35,8-42.54t27.29-19a137.43,137.43,0,0,1,25.69-3.48q15-.8,31.57-.8t31.57.8a137.67,137.67,0,0,1,25.69,3.48q19.27,4.81,27.3,19t8,42.54Z"/><path class="lb1" d="M1584.86,346.65q-6.15-24-19.53-41.3t-35.16-27.06q-21.76-9.77-53-9.77H1298.87a5.31,5.31,0,0,0-5.31,5.31V433.38a5.31,5.31,0,0,0,5.31,5.31h70.3a5.31,5.31,0,0,0,5.31-5.31v-87a5.3,5.3,0,0,1,5.3-5.31h106.86q10,0,15.91,7a45.29,45.29,0,0,1,8.65,16.47,98,98,0,0,1,3.63,19.25q.83,9.76.83,15.35t-.83,15.34a97.55,97.55,0,0,1-3.63,19.25,45.2,45.2,0,0,1-8.65,16.47q-5.86,7-15.91,7l-432.62.58a5.3,5.3,0,0,1-5.31-5.31V273.83a5.31,5.31,0,0,0-5.31-5.31H973.1a5.31,5.31,0,0,0-5.31,5.31V663.34a5.31,5.31,0,0,0,5.31,5.31h70.3a5.31,5.31,0,0,0,5.31-5.31V535a5.3,5.3,0,0,1,5.3-5.31h423.15q31.24,0,53-9.21T1565.33,494q13.39-17.28,19.53-41.29t6.14-53.57A211.49,211.49,0,0,0,1584.86,346.65Z"/><path class="lb2" d="M1000.8,804.35h-16l-20.75-23.79H951.18v23.79H937.76V733.08c11.28,0,22.57.1,33.86.1,16.77.1,25.62,11.28,25.62,23.59,0,9.76-4.47,19.62-18,22.37l21.56,24.3Zm-49.62-58.67v22.78h20.44c8.54,0,12.2-5.69,12.2-11.39s-3.76-11.39-12.2-11.39Z"/><path class="lb2" d="M859.72,745.38H837.15v-12.2h58.56v12.2H873.14v59H859.72Z"/><path class="lb2" d="M1245.36,804.35V733.18h13.32v71.17Z"/><path class="lb2" d="M789.26,750.36c-2.44-4.07-9.15-7.93-16.88-7.93-10,0-14.75,4.17-14.75,9.46,0,6.2,7.32,7.93,15.86,8.94,14.85,1.83,28.68,5.7,28.68,22.68,0,15.86-14,22.67-29.9,22.67-14.53,0-25.72-4.47-31-17.49l11.19-5.79c3.15,7.83,11.39,11.29,20,11.29,8.44,0,16.37-3,16.37-10.68,0-6.71-7-9.46-16.47-10.47-14.54-1.73-28-5.6-28-21.56,0-14.64,14.44-20.64,27.56-20.74,11.08,0,22.57,3.15,28,14.13Z"/><path class="lb2" d="M594.68,790.93H557.47l-6.1,13.42H536.82l31.93-71.17h14.64l31.93,71.17H600.68Zm-18.61-42.8-13.22,30.29h26.44Z"/><path class="lb2" d="M706.43,733.28v40.77c0,21.05-12.91,31.83-30.81,31.83-17.08,0-31.62-10.37-31.62-31.83V733.28h13.32v40.77c0,12.81,7.32,19.63,18.41,19.63s17.38-7.43,17.38-19.63V733.28Z"/><path class="lb2" d="M1091.08,790.93h-37.22l-6.1,13.42h-14.54l31.93-71.17h14.64l31.93,71.17h-14.65Zm-18.61-42.8-13.22,30.29h26.44Z"/><path class="lb2" d="M1147.1,792.15v-59h13.43v59H1204v12.2l-56.93-.11"/><path class="lb2" d="M1362.66,790.93h-37.22l-6.1,13.42H1304.8l31.92-71.17h14.65l31.92,71.17h-14.64Zm-18.61-42.8-13.22,30.29h26.43Z"/><line class="lb3" x1="493.96" y1="768.68" x2="365.37" y2="768.68"/><line class="lb4" x1="1548.14" y1="768.68" x2="1419.55" y2="768.68"/><path class="lb1" d="M723.52,198.68h-2.44l-2-4.79H707.93l-2,4.79h-2.45l10-24.24Zm-14.66-7h9.32l-4.66-11.32Z"/><path class="lb1" d="M749.4,175.21v24.46L736,181.16v17.52h-2.25V174.21l13.37,18.52V175.21Z"/><path class="lb1" d="M795.72,198.68h-2.44l-2-4.79H780.13l-2,4.79h-2.44l10-24.24Zm-14.66-7h9.33l-4.66-11.32Z"/><path class="lb1" d="M808.23,175.21v21.22H820v2.25H806V175.21Z"/><path class="lb1" d="M826.3,175.21l7.55,18.36,7.56-18.36h2.44l-10,24.24-10-24.24Z"/><path class="lb1" d="M887.67,177.59l.38.29-1.45,1.73-.35-.29a8.13,8.13,0,0,0-11.28.9,10.15,10.15,0,0,0,0,13.43,8,8,0,0,0,6.14,2.78,7.73,7.73,0,0,0,3.45-.81,8.62,8.62,0,0,0,2.91-2.28v-5.11h-8V186h10.25v8.13l-.09.16a11.14,11.14,0,0,1-3.8,3.23,10,10,0,0,1-4.72,1.18,10.24,10.24,0,0,1-5.52-1.58,11.19,11.19,0,0,1-4-4.27,12.75,12.75,0,0,1,0-11.77,11.22,11.22,0,0,1,4-4.28,10.34,10.34,0,0,1,12.08.81Z"/><path class="lb1" d="M908.11,175.21a6.23,6.23,0,0,1,4.57,1.91,6.56,6.56,0,0,1,.67,8.42,6.2,6.2,0,0,1-3.18,2.34l5.69,10.8h-2.57l-5.47-10.45h-5.56v10.45H900V175.21ZM902.26,186h5.14l1.39-.07a4.14,4.14,0,0,0,2.52-1.43,4,4,0,0,0,1-2.75,4.15,4.15,0,0,0-1.24-3,4,4,0,0,0-3-1.25h-5.85Z"/><path class="lb1" d="M944.57,181.06a12.75,12.75,0,0,1,0,11.77,11.19,11.19,0,0,1-4,4.27,10.36,10.36,0,0,1-11,0,11.19,11.19,0,0,1-4-4.27,12.75,12.75,0,0,1,0-11.77,11.22,11.22,0,0,1,4-4.28,10.42,10.42,0,0,1,11,0A11.22,11.22,0,0,1,944.57,181.06Zm-18.13,5.88a9.53,9.53,0,0,0,2.54,6.72,8.15,8.15,0,0,0,12.24,0,10.16,10.16,0,0,0,0-13.44,8.17,8.17,0,0,0-12.24,0A9.57,9.57,0,0,0,926.44,186.94Z"/><path class="lb1" d="M958.55,175.21v15.85a4.91,4.91,0,0,0,1.75,3.77,6,6,0,0,0,4.23,1.6,6,6,0,0,0,4.21-1.6,5,5,0,0,0,1.74-3.84V175.21h2.25V191a7.13,7.13,0,0,1-2.41,5.41,8.64,8.64,0,0,1-11.61,0A7.13,7.13,0,0,1,956.3,191V175.21Z"/><path class="lb1" d="M992.05,175.21h0a6.23,6.23,0,0,1,4.57,1.91,6.54,6.54,0,0,1,0,9.2,6.23,6.23,0,0,1-4.57,1.91h-6.82v10.45H983V175.21ZM985.26,186h6.82a4,4,0,0,0,3-1.26,4.08,4.08,0,0,0,1.24-3,4.15,4.15,0,0,0-1.24-3,4.06,4.06,0,0,0-3-1.25h-6.79Z"/><path class="lb1" d="M1042.36,177.59l.38.29-1.44,1.73-.36-.29a8.13,8.13,0,0,0-11.28.9,10.16,10.16,0,0,0,0,13.44,8.1,8.1,0,0,0,11.28.9l.36-.29,1.44,1.71-.38.32a10.3,10.3,0,0,1-12.07.8,11,11,0,0,1-4-4.27,12.67,12.67,0,0,1,0-11.77,11.06,11.06,0,0,1,4-4.28,10.33,10.33,0,0,1,12.07.81Z"/><path class="lb1" d="M1073.38,181.06a12.67,12.67,0,0,1,0,11.77,11.11,11.11,0,0,1-4,4.27,10.35,10.35,0,0,1-11,0,11,11,0,0,1-4-4.27,12.67,12.67,0,0,1,0-11.77,11.06,11.06,0,0,1,4-4.28,10.4,10.4,0,0,1,11,0A11.14,11.14,0,0,1,1073.38,181.06Zm-18.13,5.88a9.58,9.58,0,0,0,2.54,6.72,8.16,8.16,0,0,0,12.25,0,10.16,10.16,0,0,0,0-13.44,8.18,8.18,0,0,0-12.25,0A9.61,9.61,0,0,0,1055.25,186.94Z"/><path class="lb1" d="M1095.53,188.65,1106,174.21v24.47h-2.25V181.16l-8.17,11.31-8.17-11.31v17.52h-2.25V174.21Z"/><path class="lb1" d="M1125.27,175.21h0a6.19,6.19,0,0,1,4.56,1.91,6.52,6.52,0,0,1,0,9.2,6.19,6.19,0,0,1-4.56,1.91h-6.82v10.45h-2.25V175.21ZM1118.48,186h6.82a4,4,0,0,0,3-1.26,4.08,4.08,0,0,0,1.24-3,4.15,4.15,0,0,0-1.24-3,4.06,4.06,0,0,0-3-1.25h-6.79Z"/><path class="lb1" d="M1155.9,198.68h-2.44l-2-4.79h-11.19l-2,4.79h-2.44l10-24.24Zm-14.66-7h9.33l-4.66-11.32Z"/><path class="lb1" d="M1181.78,175.21v24.46l-13.37-18.51v17.52h-2.25V174.21l13.37,18.52V175.21Z"/><path class="lb1" d="M1194.61,175.21l6,10.64,6-10.64h2.61l-7.49,13.24v10.23h-2.25V188.45L1192,175.21Z"/><path class="lb1" d="M649.79,865.06v2.25H639.18v8.52h10.61v2.25H639.18v10.45h-2.25V865.06Z"/><path class="lb1" d="M668.17,865.06a6.2,6.2,0,0,1,4.57,1.92,6.53,6.53,0,0,1,.67,8.42,6.24,6.24,0,0,1-3.18,2.33l5.69,10.8h-2.57l-5.47-10.45h-5.56v10.45h-2.25V865.06Zm-5.85,10.77h5.15l1.38-.06a4.14,4.14,0,0,0,2.52-1.43,4.06,4.06,0,0,0,1-2.75,4.15,4.15,0,0,0-1.24-3,4,4,0,0,0-3-1.26h-5.85Z"/><path class="lb1" d="M704.63,870.91a12.67,12.67,0,0,1,0,11.77,11.14,11.14,0,0,1-4,4.28,10.42,10.42,0,0,1-11,0,11.22,11.22,0,0,1-4-4.28,12.75,12.75,0,0,1,0-11.77,11.19,11.19,0,0,1,4-4.27,10.36,10.36,0,0,1,11,0A11.11,11.11,0,0,1,704.63,870.91ZM686.5,876.8a9.57,9.57,0,0,0,2.54,6.72,8.18,8.18,0,0,0,12.25,0,10.16,10.16,0,0,0,0-13.44,8.16,8.16,0,0,0-12.25,0A9.53,9.53,0,0,0,686.5,876.8Z"/><path class="lb1" d="M732,865.06v24.47L718.61,871v17.52h-2.25V864.07l13.38,18.51V865.06Z"/><path class="lb1" d="M757.77,865.06v2.25h-6.65v21.22h-2.26V867.31h-6.62v-2.25Z"/><path class="lb1" d="M804.48,870.91a12.67,12.67,0,0,1,0,11.77,11.22,11.22,0,0,1-4,4.28,10.42,10.42,0,0,1-11,0,11.22,11.22,0,0,1-4-4.28,12.75,12.75,0,0,1,0-11.77,11.19,11.19,0,0,1,4-4.27,10.36,10.36,0,0,1,11,0A11.19,11.19,0,0,1,804.48,870.91Zm-18.13,5.89a9.57,9.57,0,0,0,2.54,6.72,8.18,8.18,0,0,0,12.25,0,10.16,10.16,0,0,0,0-13.44,8.16,8.16,0,0,0-12.25,0A9.53,9.53,0,0,0,786.35,876.8Z"/><path class="lb1" d="M829.07,865.06v2.25H818.46v8.52h10.61v2.25H818.46v10.45h-2.25V865.06Z"/><path class="lb1" d="M857.68,865.06v10.77H870V865.06h2.25v23.47H870V878.08H857.68v10.45h-2.25V865.06Z"/><path class="lb1" d="M902.88,870.91a12.67,12.67,0,0,1,0,11.77,11.14,11.14,0,0,1-4,4.28,10.4,10.4,0,0,1-11,0,11.06,11.06,0,0,1-4-4.28,12.67,12.67,0,0,1,0-11.77,11,11,0,0,1,4-4.27,10.35,10.35,0,0,1,11,0A11.11,11.11,0,0,1,902.88,870.91Zm-18.13,5.89a9.61,9.61,0,0,0,2.54,6.72,8.18,8.18,0,0,0,12.25,0,10.16,10.16,0,0,0,0-13.44,8.16,8.16,0,0,0-12.25,0A9.58,9.58,0,0,0,884.75,876.8Z"/><path class="lb1" d="M916.87,865.06v15.85a4.93,4.93,0,0,0,1.75,3.78,6.4,6.4,0,0,0,8.44,0,5,5,0,0,0,1.73-3.84V865.06H931v15.82a7.11,7.11,0,0,1-2.41,5.42,8.66,8.66,0,0,1-11.6,0,7.15,7.15,0,0,1-2.41-5.45V865.06Z"/><path class="lb1" d="M953.08,865.93a6.82,6.82,0,0,1,2.81,2.35l.26.38-1.8,1.35-.29-.45a4.62,4.62,0,0,0-2-1.62,7,7,0,0,0-3-.63,6.38,6.38,0,0,0-3.91,1.19,3.44,3.44,0,0,0-1.59,2.77,3.05,3.05,0,0,0,.76,2,5.13,5.13,0,0,0,2.1,1.48c.32.13.73.27,1.22.42,1.18.38,1.85.61,2,.67s.41.15.74.26l.67.22,1.38.49a7.46,7.46,0,0,1,3.2,2.26,5.12,5.12,0,0,1,1.21,3.3,5.42,5.42,0,0,1-2.3,4.42,9.28,9.28,0,0,1-10.93,0,5.42,5.42,0,0,1-2.3-4.42v-.49h2.25v.49a3.41,3.41,0,0,0,1.59,2.76,7.07,7.07,0,0,0,7.85,0,3.41,3.41,0,0,0,1.59-2.76,3.11,3.11,0,0,0-.71-1.92,4.92,4.92,0,0,0-2-1.46l-1.45-.51-1.25-.42-2.09-.71-1.16-.38a7.61,7.61,0,0,1-3.36-2.27,5.16,5.16,0,0,1-1.27-3.39,5.41,5.41,0,0,1,2.3-4.42,8.62,8.62,0,0,1,5.45-1.79A9.12,9.12,0,0,1,953.08,865.93Z"/><path class="lb1" d="M980,865.06v2.25H969.36v8.52H980v2.25H969.36v8.2H980v2.25H967.11V865.06Z"/><path class="lb1" d="M1015.37,865.06h0A6.17,6.17,0,0,1,1020,867a6.51,6.51,0,0,1,0,9.19,6.16,6.16,0,0,1-4.56,1.91h-6.82v10.45h-2.25V865.06Zm-6.79,10.77h6.82a4,4,0,0,0,3-1.25,4.26,4.26,0,0,0,0-6,4,4,0,0,0-3-1.26h-6.79Z"/><path class="lb1" d="M1040.22,865.06a6.18,6.18,0,0,1,4.56,1.92,6.32,6.32,0,0,1,1.9,4.61,6.39,6.39,0,0,1-1.22,3.81,6.31,6.31,0,0,1-3.19,2.33l5.69,10.8h-2.57l-5.46-10.45h-5.57v10.45h-2.25V865.06Zm-5.86,10.77h5.15l1.38-.06a4.14,4.14,0,0,0,2.52-1.43,4.06,4.06,0,0,0,1-2.75,4.15,4.15,0,0,0-1.24-3,4,4,0,0,0-3-1.26h-5.86Z"/><path class="lb1" d="M1076.67,870.91a12.67,12.67,0,0,1,0,11.77,11.14,11.14,0,0,1-4,4.28,10.4,10.4,0,0,1-11,0,11.06,11.06,0,0,1-4-4.28,12.67,12.67,0,0,1,0-11.77,11,11,0,0,1,4-4.27,10.35,10.35,0,0,1,11,0A11.11,11.11,0,0,1,1076.67,870.91Zm-18.13,5.89a9.61,9.61,0,0,0,2.54,6.72,8.18,8.18,0,0,0,12.25,0,10.16,10.16,0,0,0,0-13.44,8.16,8.16,0,0,0-12.25,0A9.58,9.58,0,0,0,1058.54,876.8Z"/><path class="lb1" d="M1094.32,865.06h.06a10.05,10.05,0,0,1,5.5,1.59,11.38,11.38,0,0,1,3.95,4.28,12.55,12.55,0,0,1,0,11.73,11.52,11.52,0,0,1-4,4.28,10,10,0,0,1-5.47,1.59h-6V865.06Zm-3.67,21.22h3.83a8.07,8.07,0,0,0,6-2.83,9.51,9.51,0,0,0,2.51-6.65,9.62,9.62,0,0,0-2.54-6.71,8,8,0,0,0-6.11-2.78h-3.73Z"/><path class="lb1" d="M1117.79,865.06v15.85a4.93,4.93,0,0,0,1.75,3.78,6.08,6.08,0,0,0,4.23,1.59,6,6,0,0,0,4.21-1.59,5,5,0,0,0,1.73-3.84V865.06H1132v15.82a7.11,7.11,0,0,1-2.41,5.42,8.66,8.66,0,0,1-11.6,0,7.15,7.15,0,0,1-2.41-5.45V865.06Z"/><path class="lb1" d="M1159.74,867.44l.39.29-1.45,1.74-.35-.29a8.12,8.12,0,0,0-11.29.9,10.16,10.16,0,0,0,0,13.44,8.14,8.14,0,0,0,11.29.9l.35-.29,1.45,1.7-.39.32a10.33,10.33,0,0,1-12.07.81,11.14,11.14,0,0,1-4-4.28,12.67,12.67,0,0,1,0-11.77,11.11,11.11,0,0,1,4-4.27,10.3,10.3,0,0,1,12.07.8Z"/><path class="lb1" d="M1185.91,865.06v2.25h-6.66v21.22H1177V867.31h-6.62v-2.25Z"/><path class="lb1" d="M1198.41,865.06v23.47h-2.25V865.06Z"/><path class="lb1" d="M1229.08,870.91a12.67,12.67,0,0,1,0,11.77,11.14,11.14,0,0,1-4,4.28,10.4,10.4,0,0,1-11,0,11.06,11.06,0,0,1-4-4.28,12.67,12.67,0,0,1,0-11.77,11,11,0,0,1,4-4.27,10.35,10.35,0,0,1,11,0A11.11,11.11,0,0,1,1229.08,870.91ZM1211,876.8a9.61,9.61,0,0,0,2.54,6.72,8.18,8.18,0,0,0,12.25,0,10.16,10.16,0,0,0,0-13.44,8.16,8.16,0,0,0-12.25,0A9.58,9.58,0,0,0,1211,876.8Z"/><path class="lb1" d="M1256.44,865.06v24.47L1243.06,871v17.52h-2.25V864.07l13.38,18.51V865.06Z"/><path class="lb1" d="M1278.44,865.93a6.92,6.92,0,0,1,2.82,2.35l.25.38-1.8,1.35-.29-.45a4.56,4.56,0,0,0-2-1.62,7,7,0,0,0-3-.63,6.35,6.35,0,0,0-3.9,1.19,3.42,3.42,0,0,0-1.6,2.77,3.11,3.11,0,0,0,.76,2,5.2,5.2,0,0,0,2.1,1.48c.33.13.73.27,1.23.42,1.18.38,1.84.61,2,.67s.42.15.74.26l.67.22,1.39.49A7.52,7.52,0,0,1,1281,879a5.16,5.16,0,0,1,1.2,3.3,5.42,5.42,0,0,1-2.3,4.42,9.28,9.28,0,0,1-10.93,0,5.42,5.42,0,0,1-2.3-4.42v-.49h2.25v.49a3.4,3.4,0,0,0,1.6,2.76,7.05,7.05,0,0,0,7.84,0,3.41,3.41,0,0,0,1.59-2.76,3.11,3.11,0,0,0-.71-1.92,4.85,4.85,0,0,0-2-1.46l-1.45-.51-1.25-.42-2.09-.71-1.16-.38a7.61,7.61,0,0,1-3.36-2.27,5.22,5.22,0,0,1-1.27-3.39,5.41,5.41,0,0,1,2.3-4.42,8.62,8.62,0,0,1,5.45-1.79A9.12,9.12,0,0,1,1278.44,865.93Z"/><line class="lb5" x1="1274" y1="188.5" x2="1551" y2="188.5"/><line class="lb5" x1="366" y1="188.5" x2="642" y2="188.5"/>
  </svg>

  <line x1="960" y1="0"    x2="960"  y2="1080" stroke="rgba(255,255,255,0.55)" stroke-width="1"/>
  <line x1="0"   y1="540"  x2="1920" y2="540"  stroke="rgba(255,255,255,0.55)" stroke-width="1"/>
  <circle cx="960" cy="540" r="475" fill="none" stroke="rgba(255,255,255,0.85)" stroke-width="1.5"/>
  <circle cx="150"  cy="150"  r="110" fill="none" stroke="rgba(255,255,255,0.85)" stroke-width="1.5"/>
  <circle cx="1770" cy="150"  r="110" fill="none" stroke="rgba(255,255,255,0.85)" stroke-width="1.5"/>
  <circle cx="150"  cy="930"  r="110" fill="none" stroke="rgba(255,255,255,0.85)" stroke-width="1.5"/>
  <circle cx="1770" cy="930"  r="110" fill="none" stroke="rgba(255,255,255,0.85)" stroke-width="1.5"/>
  <text x="960" y="1058" text-anchor="middle" font-family="monospace" font-size="22" fill="rgba(255,255,255,0.35)">ALIGNMENT — 1920x1080 — PIP / Full HD</text>
</svg>